<svg xmlns="http://www.w3.org/2000/svg" viewBox="0 0 64 64" role="img" aria-labelledby="title">
  <title>SC Sound</title>
  <path fill="#1d1f2b" d="M8 24h12l16-13v42L20 40H8z"/>
  <path fill="#b7c3ba" d="M20 20H8a4 4 0 0 0-4 4v16a4 4 0 0 0 4 4h12l17 13a4 4 0 0 0 6-3V10a4 4 0 0 0-6-3z"/>
  <path fill="none" stroke="#e0dccf" stroke-linecap="round" stroke-width="5" d="M48 22c3 3 4 6 4 10s-1 7-4 10"/>
  <path fill="none" stroke="#9aa4a0" stroke-linecap="round" stroke-width="5" d="M54 14c6 5 9 11 9 18s-3 13-9 18"/>
</svg>
